<svg width="20" height="21" viewBox="0 0 20 21" fill="none" xmlns="http://www.w3.org/2000/svg">
<g id="Group" opacity="0.301">
<path id="Vector" d="M10 20.5C15.5228 20.5 20 16.0228 20 10.5C20 4.97715 15.5228 0.5 10 0.5C4.47715 0.5 0 4.97715 0 10.5C0 16.0228 4.47715 20.5 10 20.5Z" fill="white"/>
<g id="Group_2">
<path id="Vector_2" d="M13.6475 14.7861C13.5636 14.7862 13.4805 14.7697 13.4031 14.7376C13.3256 14.7055 13.2552 14.6583 13.1961 14.5989L5.90177 7.30462C5.78208 7.18488 5.71484 7.0225 5.71484 6.8532C5.71484 6.68389 5.78208 6.52151 5.90177 6.40177C6.02151 6.28208 6.18389 6.21484 6.3532 6.21484C6.5225 6.21484 6.68488 6.28208 6.80462 6.40177L14.0989 13.6961C14.1882 13.7854 14.249 13.8991 14.2736 14.023C14.2982 14.1468 14.2856 14.2752 14.2372 14.3918C14.1889 14.5085 14.1071 14.6082 14.0021 14.6784C13.8972 14.7485 13.7737 14.786 13.6475 14.7861Z" fill="black"/>
<path id="Vector_3" d="M6.3532 14.7861C6.26933 14.7862 6.18626 14.7697 6.10878 14.7376C6.0313 14.7055 5.96095 14.6583 5.90177 14.5989C5.78208 14.4792 5.71484 14.3168 5.71484 14.1475C5.71484 13.9782 5.78208 13.8158 5.90177 13.6961L13.1961 6.40177C13.3158 6.28208 13.4782 6.21484 13.6475 6.21484C13.8168 6.21484 13.9792 6.28208 14.0989 6.40177C14.2186 6.52151 14.2858 6.68389 14.2858 6.8532C14.2858 7.0225 14.2186 7.18488 14.0989 7.30462L6.80462 14.5989C6.74544 14.6583 6.67509 14.7055 6.59761 14.7376C6.52013 14.7697 6.43707 14.7862 6.3532 14.7861Z" fill="black"/>
</g>
</g>
</svg>
