<?xml version="1.0" standalone="no"?>
<!DOCTYPE svg PUBLIC "-//W3C//DTD SVG 20010904//EN"
 "http://www.w3.org/TR/2001/REC-SVG-20010904/DTD/svg10.dtd">
<svg version="1.0" xmlns="http://www.w3.org/2000/svg"
 width="413.000000pt" height="131.000000pt" viewBox="0 0 413.000000 131.000000"
 preserveAspectRatio="xMidYMid meet">

<g transform="translate(0.000000,131.000000) scale(0.100000,-0.100000)"
fill="#000000" stroke="none">
<path d="M0 1220 l0 -90 405 0 405 0 0 -135 0 -135 -120 0 -120 0 0 -335 0
-335 -165 0 -165 0 0 335 0 335 -120 0 -120 0 0 -430 0 -430 2065 0 2065 0 0
655 0 655 -2065 0 -2065 0 0 -90z m3937 -105 c71 -35 168 -125 160 -149 -2 -6
-63 -43 -137 -82 l-133 -72 -32 34 c-27 28 -40 34 -74 34 -94 0 -111 -33 -111
-215 0 -93 4 -146 14 -169 26 -61 96 -96 165 -81 l31 7 0 139 0 139 145 0 145
0 0 -223 0 -223 -47 -23 c-239 -117 -506 -99 -648 44 -84 83 -114 189 -115
401 0 127 12 192 50 270 71 145 230 220 440 208 60 -4 90 -12 147 -39z m-1727
-455 l0 -470 -160 0 -160 0 0 470 0 470 160 0 160 0 0 -470z m551 268 c56
-112 106 -206 112 -210 6 -4 17 -2 24 4 10 8 13 60 13 209 l0 199 150 0 150 0
0 -470 0 -470 -158 0 -157 0 -94 188 c-111 224 -117 233 -136 226 -13 -5 -15
-38 -15 -210 l0 -204 -150 0 -150 0 0 470 0 470 155 0 155 0 101 -202z m-1011
-278 l0 -470 -155 0 -155 0 -2 322 c-3 313 -4 323 -23 323 -17 0 -34 -44 -124
-323 l-105 -322 -168 0 c-92 0 -168 3 -168 7 0 3 71 215 157 470 l158 463 292
0 293 0 0 -470z"/>
</g>
</svg>
