<svg width="34" height="34" viewBox="0 0 34 34" fill="none" xmlns="http://www.w3.org/2000/svg">
<g id="icon_menu_live">
<g id="icon">
<g id="LIVE">
<path id="&#237;&#140;&#168;&#236;&#138;&#164;_1422" d="M11.0003 23.3695H6.5166V16.1445H7.63859V22.3963H11.0018L11.0003 23.3695Z" fill="#C4C4C4" stroke="#C4C4C4" stroke-width="0.2" stroke-linejoin="round"/>
<path id="&#237;&#140;&#168;&#236;&#138;&#164;_1423" d="M12.4834 23.3695V16.1445H13.6054V23.3695H12.4834Z" fill="#C4C4C4" stroke="#C4C4C4" stroke-width="0.2" stroke-linejoin="round"/>
<path id="&#237;&#140;&#168;&#236;&#138;&#164;_1424" d="M17.6629 23.3695L15.0859 16.1445H16.3029L18.2692 22.1059H18.3004L20.2724 16.1445H21.4695L18.8912 23.3695H17.6629Z" fill="#C4C4C4" stroke="#C4C4C4" stroke-width="0.2" stroke-linejoin="round"/>
<path id="&#237;&#140;&#168;&#236;&#138;&#164;_1425" d="M27.5355 23.3695H22.9512V16.1445H27.5355V17.1107H24.0732V19.2229H27.3513V20.1494H24.0732V22.392H27.5355V23.3695Z" fill="#C4C4C4" stroke="#C4C4C4" stroke-width="0.2" stroke-linejoin="round"/>
</g>
<g id="TV" opacity="0.901">
<g id="&#236;&#130;&#172;&#234;&#176;&#129;&#237;&#152;&#149;_2321" opacity="0.998">
<path id="Vector" d="M29.7496 9.34766H4.24961C2.37184 9.34766 0.849609 10.8699 0.849609 12.7477V26.9143C0.849609 28.7921 2.37184 30.3143 4.24961 30.3143H29.7496C31.6274 30.3143 33.1496 28.7921 33.1496 26.9143V12.7477C33.1496 10.8699 31.6274 9.34766 29.7496 9.34766Z" stroke="#C4C4C4" stroke-width="1.2" stroke-linecap="round" stroke-linejoin="round"/>
</g>
<g id="antennae" opacity="0.998">
<path id="&#236;&#132;&#160;_34" d="M15.9441 9.20898L11.6162 4.95898" stroke="#C4C4C4" stroke-width="1.2" stroke-linecap="round" stroke-linejoin="round"/>
<path id="&#236;&#132;&#160;_35" d="M17.9844 9.20898L22.3123 4.95898" stroke="#C4C4C4" stroke-width="1.2" stroke-linecap="round" stroke-linejoin="round"/>
</g>
</g>
</g>
</g>
</svg>
