<svg width="279" height="110" viewBox="0 0 279 110" fill="none" xmlns="http://www.w3.org/2000/svg">
<g clip-path="url(#clip0_22_965)">
<path d="M78.0803 106.961L92.0167 63.8717C92.1033 63.6033 92.2834 63.3746 92.5245 63.2268C92.7655 63.079 93.0518 63.0217 93.3315 63.0655C93.6112 63.1092 93.866 63.251 94.05 63.4653C94.234 63.6795 94.3349 63.9522 94.3347 64.234L94.3347 106.961L116.459 106.961L116.459 42.0149L75.8391 42.0149L53.7826 106.96L78.0803 106.961Z" fill="white"/>
<path d="M127.298 42.0181H150.569V106.963H127.298V42.0181ZM0 61.4006H16.7308V106.966H39.2396V61.4006H55.9689V42.0181H0V61.4006ZM196.445 42.021V69.1561C196.446 69.4232 196.356 69.6826 196.189 69.8921C196.023 70.1016 195.79 70.2487 195.529 70.3096C195.267 70.3705 194.993 70.3416 194.75 70.2275C194.508 70.1134 194.311 69.9208 194.193 69.6813L180.433 42.021H158.443V106.967H179.827V79.9804C179.827 79.7139 179.917 79.4552 180.084 79.2463C180.25 79.0374 180.482 78.8907 180.743 78.8299C181.004 78.769 181.278 78.7977 181.52 78.9112C181.762 79.0248 181.959 79.2165 182.078 79.4553L195.774 106.964H217.767V42.0181L196.445 42.021ZM244.992 81.0421V66.8545C244.992 63.2648 246.427 60.6263 249.887 59.7218C253.596 58.7593 257.019 61.1076 258.182 64.9493L278.649 54.0414C270.583 39.4037 255.493 39.6033 249.453 40.1299C242.798 40.5344 236.447 43.0493 231.332 47.3064C225.739 52.0682 223.092 59.8364 223.092 68.0308V80.8213C223.092 93.0116 227.927 101.142 236.266 105.895C250.652 114.088 270.84 108.501 279.004 102.317V71.1449H257.872V90.6024C254.876 91.7602 244.998 93.088 244.998 81.0392" fill="white"/>
<path d="M181.375 1.13281H197.936V3.6609H181.375V1.13281Z" fill="white"/>
<path d="M194.636 5.99247L195.251 3.55922V3.53516H192.311L191.691 5.99247H187.341V3.53516H184.461V5.99247H181.172V8.44836H198.149V5.99247H194.636Z" fill="white"/>
<path d="M184.04 18.6244H197.936V12.8633H181.375V15.3107H195.275V16.177H181.378V21.9621H198.159V19.5204H184.04V18.6244Z" fill="white"/>
<path d="M180.344 9.44531H198.966V11.9748H180.344V9.44531Z" fill="white"/>
<path d="M226.78 1.13281H243.398V3.80245H226.78V1.13281Z" fill="white"/>
<path d="M236.45 11.0485V9.60473H243.617V6.98464H240.146L240.803 3.40625H237.889L237.209 6.98464H232.751V3.40625H229.871V6.98464H226.582V9.60473H233.455V11.0485H225.537V13.6927H244.492V11.0485H236.45Z" fill="white"/>
<path d="M226.78 21.9656H243.398V14.7734H226.78V21.9656ZM229.561 17.2775H240.618V19.4602H229.561V17.2775Z" fill="white"/>
<path d="M108.927 15.3047H105.994V21.9646H122.774V19.3785H108.92L108.927 15.3047Z" fill="white"/>
<path d="M119.612 10.5416H122.545V1.13281H105.995V3.85907H119.612V5.46283H105.995V8.14096H119.612V10.5416Z" fill="white"/>
<path d="M114.779 11.6881V9.03125H111.845V11.6881H104.968V14.2743H123.475V11.6881H114.779Z" fill="white"/>
<path d="M136.261 13.4303V10.697L130.648 11.0934V8.7323H135.503V6.03011H130.648V3.86297H135.933V1.13672H127.714V14.0588L136.247 13.4332L136.261 13.4303Z" fill="white"/>
<path d="M138.511 16.0871H141.42V0.796875H138.509V6.03423H136.4V8.72934H138.509L138.511 16.0871Z" fill="white"/>
<path d="M142.612 0.699219H145.546V16.6604H142.612V0.699219Z" fill="white"/>
<path d="M131.378 19.3802V15.0898H128.444V21.9678H145.631V19.3802H131.378Z" fill="white"/>
<path d="M159.06 6.36975L165.601 15.7418L167.937 13.8818L161.822 5.38881H167.51V2.72484H160.515V0H157.413V2.72484H150.587V5.39306H156.275L150.205 13.8719L152.51 15.7347L159.06 6.36975Z" fill="white"/>
<path d="M149.694 19.2969H168.435V21.9651H149.694V19.2969Z" fill="white"/>
<path d="M216.939 8.80613H218.491V15.1759H221.369V0.695312H218.491V6.13791H216.936V0.791567H214.101V14.2671H216.936L216.939 8.80613Z" fill="white"/>
<path d="M212.648 13.4505V10.8884L206.64 11.2735V8.5189H212.415V1.13281H203.759V3.68071H209.535V5.9894H203.759V14.1837L212.648 13.4505Z" fill="white"/>
<path d="M213.02 14.5391H213.008L203.878 20.2421L205.515 22.5366L213.008 17.799L220.473 22.5423L222.127 20.2365L213.02 14.5391Z" fill="white"/>
<path d="M88.249 21.9815L84.9512 12.4891H84.708V21.9815H81.4116V1.16797H84.7308L84.708 10.3956H84.9512L88.1153 1.16797H91.7004L87.939 11.2732L92.0986 21.9772L88.249 21.9815Z" fill="white"/>
<path d="M93.4126 10.0195H100.573V12.6184H93.4126V10.0195Z" fill="white"/>
<path d="M57.7808 18.2578H61.0999V21.9806H57.7808V18.2578Z" fill="white"/>
<path d="M39.9347 7.00408V1.16797H43.0548V21.9758H39.8238L36.553 9.35523H36.3539L36.5089 14.6634V21.9758H33.4116V1.16797H36.9953L39.9162 12.642H40.1366L39.9347 7.00408Z" fill="white"/>
<path d="M67.7455 1.10156V21.9816H64.4747V6.01335H62.2847V4.03165C63.118 4.07526 63.9355 3.79371 64.5635 3.24683C65.1915 2.69994 65.5805 1.93085 65.6479 1.10298L67.7455 1.10156Z" fill="white"/>
<path d="M55.4525 6.13352V17.0145C55.4525 20.2701 53.682 22.1895 50.5406 22.1895C47.3765 22.1895 45.6729 20.273 45.6729 17.0145V6.13352C45.6729 2.85239 47.3993 0.957031 50.5406 0.957031C53.7048 0.957031 55.4525 2.85097 55.4525 6.13352ZM52.0964 5.59846C52.0964 4.51843 51.4991 3.83616 50.5918 3.83616C50.3705 3.83864 50.1522 3.88786 49.9514 3.98056C49.7505 4.07325 49.5718 4.20732 49.4269 4.37389C49.282 4.54047 49.1742 4.73576 49.1108 4.94685C49.0474 5.15795 49.0296 5.38004 49.0588 5.59846V17.5354C49.0588 18.6154 49.6789 19.2977 50.5634 19.2977C50.7843 19.2944 51.0019 19.2446 51.2021 19.1516C51.4022 19.0585 51.5803 18.9243 51.7246 18.7579C51.8688 18.5914 51.9761 18.3964 52.0392 18.1857C52.1023 17.9749 52.1199 17.7533 52.0907 17.5354L52.0964 5.59846Z" fill="white"/>
</g>
<defs>
<clipPath id="clip0_22_965">
<rect width="279" height="110" fill="white"/>
</clipPath>
</defs>
</svg>
