<svg width="52" height="52" viewBox="0 0 52 52" fill="none" xmlns="http://www.w3.org/2000/svg">
<rect width="52" height="52" rx="26" fill="#2B2B2B"/>
<g clip-path="url(#clip0_159_8310)">
<path d="M26.0065 17.7068C21.4202 17.7068 17.7209 21.4061 17.7209 25.9925C17.7209 30.5788 21.4202 34.2781 26.0065 34.2781C30.5928 34.2781 34.2922 30.5788 34.2922 25.9925C34.2922 21.4061 30.5928 17.7068 26.0065 17.7068ZM26.0065 31.3792C23.0427 31.3792 20.6198 28.9635 20.6198 25.9925C20.6198 23.0215 23.0355 20.6057 26.0065 20.6057C28.9775 20.6057 31.3933 23.0215 31.3933 25.9925C31.3933 28.9635 28.9703 31.3792 26.0065 31.3792ZM36.5637 17.3679C36.5637 18.4423 35.6984 19.3005 34.6311 19.3005C33.5566 19.3005 32.6985 18.4351 32.6985 17.3679C32.6985 16.3006 33.5639 15.4353 34.6311 15.4353C35.6984 15.4353 36.5637 16.3006 36.5637 17.3679ZM42.0514 19.3293C41.9288 16.7405 41.3375 14.4473 39.441 12.558C37.5516 10.6687 35.2585 10.0774 32.6697 9.94756C30.0015 9.79613 22.0043 9.79613 19.3362 9.94756C16.7546 10.0702 14.4614 10.6615 12.5648 12.5508C10.6683 14.4401 10.0842 16.7333 9.9544 19.3221C9.80296 21.9903 9.80296 29.9875 9.9544 32.6556C10.077 35.2444 10.6683 37.5376 12.5648 39.4269C14.4614 41.3163 16.7473 41.9076 19.3362 42.0374C22.0043 42.1888 30.0015 42.1888 32.6697 42.0374C35.2585 41.9148 37.5516 41.3235 39.441 39.4269C41.3303 37.5376 41.9216 35.2444 42.0514 32.6556C42.2029 29.9875 42.2029 21.9975 42.0514 19.3293ZM38.6045 35.5185C38.042 36.9319 36.9531 38.0207 35.5325 38.5904C33.4052 39.4341 28.3574 39.2394 26.0065 39.2394C23.6557 39.2394 18.6006 39.4269 16.4805 38.5904C15.0671 38.028 13.9782 36.9391 13.4086 35.5185C12.5648 33.3912 12.7596 28.3433 12.7596 25.9925C12.7596 23.6416 12.5721 18.5866 13.4086 16.4665C13.971 15.0531 15.0599 13.9642 16.4805 13.3945C18.6078 12.5508 23.6557 12.7455 26.0065 12.7455C28.3574 12.7455 33.4124 12.558 35.5325 13.3945C36.9459 13.957 38.0348 15.0459 38.6045 16.4665C39.4482 18.5938 39.2535 23.6416 39.2535 25.9925C39.2535 28.3433 39.4482 33.3984 38.6045 35.5185Z" fill="#6B6B6B"/>
</g>
<defs>
<clipPath id="clip0_159_8310">
<rect width="32.3062" height="36.9213" fill="white" transform="translate(9.84668 7.53906)"/>
</clipPath>
</defs>
</svg>
