<svg width="52" height="52" viewBox="0 0 52 52" fill="none" xmlns="http://www.w3.org/2000/svg">
<rect width="52" height="52" rx="26" fill="#2B2B2B"/>
<g clip-path="url(#clip0_159_8311)">
<path d="M38.7106 19.482C38.7309 19.7663 38.7309 20.0506 38.7309 20.3348C38.7309 29.0048 32.132 38.9947 20.0711 38.9947C16.3553 38.9947 12.9036 37.9185 10 36.0506C10.5279 36.1114 11.0355 36.1318 11.5838 36.1318C14.6497 36.1318 17.4721 35.0963 19.7259 33.3298C16.8426 33.2688 14.4264 31.3805 13.5939 28.7815C14 28.8424 14.4061 28.883 14.8325 28.883C15.4213 28.883 16.0102 28.8018 16.5584 28.6597C13.5533 28.0505 11.2994 25.4109 11.2994 22.2231V22.1419C12.1725 22.6293 13.1878 22.9338 14.2639 22.9744C12.4974 21.7967 11.3401 19.7866 11.3401 17.5124C11.3401 16.2942 11.6649 15.1774 12.2334 14.2028C15.4619 18.1825 20.3147 20.7814 25.7563 21.0658C25.6548 20.5784 25.5938 20.0709 25.5938 19.5633C25.5938 15.949 28.5177 13.0049 32.1522 13.0049C34.0405 13.0049 35.7461 13.7968 36.9441 15.0759C38.4263 14.7917 39.8476 14.2434 41.1065 13.4922C40.6191 15.0151 39.5836 16.2943 38.2233 17.1064C39.5431 16.9643 40.8223 16.5988 41.9999 16.0912C41.1066 17.3906 39.9898 18.5479 38.7106 19.482Z" fill="#6B6B6B"/>
</g>
<defs>
<clipPath id="clip0_159_8311">
<rect width="32" height="32" fill="white" transform="translate(10 10)"/>
</clipPath>
</defs>
</svg>
