<svg width="32" height="28" viewBox="0 0 32 28" fill="none" xmlns="http://www.w3.org/2000/svg">
<g id="Group 1125">
<path id="Path 1139" d="M27.0132 7.93848L22.4996 12.452C22.7772 13.5637 22.7625 14.7283 22.4566 15.8325C22.1507 16.9368 21.5643 17.9431 20.7543 18.7535C19.9443 19.564 18.9382 20.151 17.8341 20.4575C16.73 20.7639 15.5656 20.7794 14.4537 20.5025L11.3877 23.5685C12.8856 24.0119 14.4394 24.2377 16.0016 24.239C19.32 24.1565 22.5509 23.1566 25.3358 21.3501C28.1206 19.5436 30.3506 17.001 31.7787 14.0045C30.5967 11.6938 28.9784 9.63383 27.0132 7.93848Z" fill="#A6A6A6"/>
<path id="Path 1140" d="M27.9385 0.536133L23.0831 5.39013C20.8743 4.32425 18.4541 3.76855 16.0015 3.76413C12.6827 3.84662 9.45164 4.84671 6.66653 6.6535C3.88143 8.46028 1.65124 11.0032 0.223145 14.0001C1.77364 17.0502 4.09622 19.6407 6.95959 21.5136L1.00912 27.4641H4.06461L30.9926 0.536133H27.9385ZM16.0015 10.6251C15.4272 10.6215 14.8616 10.7654 14.3588 11.0431C13.856 11.3208 13.433 11.723 13.1302 12.2111C12.8275 12.6992 12.6551 13.2569 12.6297 13.8307C12.6043 14.4045 12.7267 14.9752 12.9851 15.4881L10.5851 17.8881C9.75457 16.7624 9.30571 15.4006 9.30408 14.0016C9.30408 12.2257 10.0096 10.5226 11.2653 9.26685C12.5211 8.0111 14.2242 7.30563 16.0001 7.30563C17.3985 7.30748 18.7597 7.75633 19.885 8.58663L17.485 10.9866C17.0252 10.7529 16.5174 10.6291 16.0015 10.6251Z" fill="#A6A6A6"/>
</g>
</svg>
