<svg width="18" height="16" viewBox="0 0 18 16" fill="none" xmlns="http://www.w3.org/2000/svg">
<g id="Group 1125">
<path id="Path 1139" d="M15.1183 4.63232L12.6108 7.13982C12.765 7.75743 12.7568 8.40444 12.5869 9.01791C12.417 9.63138 12.0912 10.1904 11.6412 10.6407C11.1912 11.0909 10.6322 11.417 10.0188 11.5873C9.40546 11.7576 8.75853 11.7662 8.14084 11.6123L6.4375 13.3157C7.26969 13.562 8.1329 13.6874 9.00077 13.6882C10.8443 13.6423 12.6393 13.0868 14.1864 12.0832C15.7336 11.0796 16.9725 9.66709 17.7658 8.00232C17.1092 6.71859 16.2101 5.57419 15.1183 4.63232Z" fill="#A6A6A6"/>
<path id="Path 1140" d="M15.6325 0.52002L12.9351 3.21669C11.708 2.62453 10.3634 2.31581 9.00087 2.31335C7.15709 2.35918 5.36205 2.91479 3.81477 3.91856C2.26749 4.92233 1.02849 6.33504 0.235107 8.00002C1.09649 9.69449 2.38682 11.1337 3.97758 12.1742L0.671763 15.48H2.36925L17.3292 0.52002H15.6325ZM9.00087 6.12502C8.68179 6.12301 8.36756 6.20297 8.08825 6.35725C7.80893 6.51153 7.57392 6.73495 7.40572 7.00611C7.23752 7.27728 7.14177 7.58709 7.12766 7.90587C7.11354 8.22465 7.18153 8.54172 7.3251 8.82669L5.99174 10.16C5.53034 9.5346 5.28098 8.77805 5.28007 8.00085C5.28007 7.01425 5.67201 6.06805 6.36965 5.37042C7.06728 4.67278 8.01346 4.28085 9.00006 4.28085C9.77698 4.28188 10.5332 4.53124 11.1584 4.99252L9.82505 6.32585C9.56959 6.19598 9.28744 6.12723 9.00087 6.12502Z" fill="#A6A6A6"/>
</g>
</svg>
