<svg width="15" height="16" viewBox="0 0 15 16" fill="none" xmlns="http://www.w3.org/2000/svg">
<g opacity="0.5">
<path d="M14.3172 15.4971C14.2276 15.4972 14.1388 15.4796 14.056 15.4453C13.9732 15.4109 13.898 15.3606 13.8348 15.2971L0.199537 1.66313C0.083091 1.53315 0.0208634 1.36351 0.0256474 1.18907C0.0304313 1.01463 0.101863 0.848651 0.225257 0.725257C0.348651 0.601863 0.51463 0.530431 0.68907 0.525647C0.86351 0.520863 1.03315 0.583091 1.16313 0.699537L14.7996 14.336C14.8946 14.4315 14.9592 14.553 14.9852 14.6851C15.0113 14.8172 14.9977 14.9541 14.9461 15.0785C14.8945 15.2029 14.8073 15.3093 14.6954 15.3842C14.5834 15.4592 14.4519 15.4993 14.3172 15.4996V15.4971Z" fill="white"/>
<path d="M0.682186 15.4974C0.592563 15.4975 0.503803 15.4799 0.421011 15.4456C0.338219 15.4113 0.263029 15.3609 0.199766 15.2975C0.0718551 15.1695 0 14.996 0 14.815C0 14.6341 0.0718551 14.4606 0.199766 14.3326L13.8362 0.699891C13.9651 0.576225 14.1372 0.50798 14.3158 0.509801C14.4943 0.511622 14.6651 0.583364 14.7913 0.709632C14.9176 0.8359 14.9894 1.00663 14.9912 1.18519C14.993 1.36375 14.9248 1.53591 14.8011 1.66473L1.16336 15.3C1.03548 15.427 0.862408 15.498 0.682186 15.4974Z" fill="white"/>
</g>
</svg>
